<?xml version="1.0" encoding="utf-8"?>
<!-- Generator: Adobe Illustrator 16.0.0, SVG Export Plug-In . SVG Version: 6.00 Build 0)  -->
<!DOCTYPE svg PUBLIC "-//W3C//DTD SVG 1.1//EN" "http://www.w3.org/Graphics/SVG/1.1/DTD/svg11.dtd">
<svg version="1.1" id="Layer_1" xmlns="http://www.w3.org/2000/svg" xmlns:xlink="http://www.w3.org/1999/xlink" x="0px" y="0px"
	 width="595.281px" height="595.281px" viewBox="0 0 595.281 595.281" enable-background="new 0 0 595.281 595.281"
	 xml:space="preserve">
<path fill="#921821" d="M526.487,518.755l-0.367-111.326L296.808,177.554c-28.403,1.432-56.478,11.768-79.58,31.233L526.487,518.755
	z"/>
<path fill="#921821" d="M512.604,532.573L203.246,222.525c-19.793,22.38-30.911,49.726-33.17,77.729l231.61,232.174L512.604,532.573
	z"/>
<path fill="#E5332A" d="M189.882,199.619c2.902-2.89,5.963-5.517,9.07-8.117c24.856-20.936,55.097-32.101,85.752-33.677
	c39.383-1.944,79.404,11.952,109.534,42.017c24.246,24.416,37.991,55.308,41.294,87.027l80.54,80.736
	c23.129-79.147,3.553-168.144-58.803-230.663c-66.774-66.907-163.981-84.822-247.095-53.798
	c-26.742,9.982-52.064,24.981-74.393,45.076c-2.981,2.706-5.911,5.438-8.78,8.327c-2.127,2.142-4.157,4.321-6.206,6.515
	c-20.417,21.974-35.797,46.863-46.193,73.341c-32.901,83.731-15.643,182.619,51.985,250.417
	c63.8,63.899,155.273,83.102,235.813,57.687l-78.332-78.478c-34.346-1.838-68.147-15.879-94.429-42.096
	c-31.069-31.285-44.821-73.132-41.518-113.874c2.463-30.156,14.428-59.603,35.738-83.771
	C185.863,204.058,187.767,201.747,189.882,199.619z"/>
</svg>
