<?xml version="1.0" encoding="utf-8"?>
<!-- Generator: Adobe Illustrator 16.0.0, SVG Export Plug-In . SVG Version: 6.00 Build 0)  -->
<!DOCTYPE svg PUBLIC "-//W3C//DTD SVG 1.1//EN" "http://www.w3.org/Graphics/SVG/1.1/DTD/svg11.dtd">
<svg version="1.1" id="Layer_1" xmlns="http://www.w3.org/2000/svg" xmlns:xlink="http://www.w3.org/1999/xlink" x="0px" y="0px"
	 width="595.281px" height="595.281px" viewBox="0 0 595.281 595.281" enable-background="new 0 0 595.281 595.281"
	 xml:space="preserve">
<g opacity="0.2">
	<g>
		<g>
			<circle cx="297.64" cy="297.64" r="297.64"/>
		</g>
	</g>
</g>
<path opacity="0.5" fill="#921821" d="M468.699,461.644l-0.281-84.699L293.943,202.05c-21.604,1.089-42.969,8.953-60.536,23.762
	L468.699,461.644z"/>
<path opacity="0.5" fill="#921821" d="M458.125,472.156L222.764,236.265c-15.059,17.028-23.512,37.833-25.231,59.137
	l176.213,176.644L458.125,472.156z"/>
<path opacity="0.5" fill="#E5332A" d="M212.602,218.838c2.198-2.199,4.537-4.197,6.895-6.176
	c18.907-15.928,41.92-24.422,65.244-25.622c29.969-1.479,60.406,9.094,83.33,31.967c18.447,18.577,28.91,42.08,31.418,66.213
	l61.275,61.425c17.607-60.217,2.709-127.928-44.729-175.494c-50.803-50.903-124.77-64.533-188.004-40.93
	c-20.345,7.594-39.612,19.006-56.599,34.295c-2.258,2.059-4.497,4.137-6.676,6.335c-1.619,1.628-3.157,3.287-4.716,4.956
	c-15.539,16.719-27.241,35.654-35.155,55.8c-25.022,63.704-11.892,138.939,39.551,190.523
	c48.545,48.615,118.135,63.225,179.411,43.889l-59.597-59.707c-26.122-1.398-51.843-12.082-71.839-32.027
	c-23.632-23.803-34.105-55.641-31.587-86.638c1.878-22.943,10.972-45.347,27.19-63.734
	C209.543,222.216,210.982,220.457,212.602,218.838z"/>
</svg>
